<svg xmlns="http://www.w3.org/2000/svg" width="960" height="620" viewBox="0 0 960 620" role="img" aria-labelledby="title desc">
  <title id="title">Google Maps y búsqueda local</title>
  <desc id="desc">Una composición de búsqueda local con mapa, pin, ficha visible y señal de posición para SEO local.</desc>
  <defs>
    <linearGradient id="bg" x1="0" y1="0" x2="1" y2="1">
      <stop offset="0" stop-color="#edf8f2"/>
      <stop offset=".58" stop-color="#ffffff"/>
      <stop offset="1" stop-color="#e0eee7"/>
    </linearGradient>
    <filter id="shadow" x="-20%" y="-20%" width="140%" height="150%">
      <feDropShadow dx="0" dy="28" stdDeviation="28" flood-color="#0d1814" flood-opacity=".16"/>
    </filter>
  </defs>
  <rect width="960" height="620" rx="42" fill="url(#bg)"/>
  <circle cx="802" cy="122" r="178" fill="#208866" opacity=".12"/>
  <circle cx="150" cy="520" r="210" fill="#111" opacity=".04"/>

  <rect x="116" y="84" width="728" height="450" rx="36" fill="#fff" filter="url(#shadow)"/>
  <rect x="162" y="128" width="636" height="56" rx="28" fill="#f5f6f2" stroke="#111" stroke-opacity=".08"/>
  <circle cx="194" cy="156" r="10" fill="#208866"/>
  <text x="222" y="163" fill="#111" font-family="Inter, Arial, sans-serif" font-size="17" font-weight="800">diseño web cerca de mí</text>

  <rect x="162" y="222" width="330" height="222" rx="30" fill="#fff" stroke="#111" stroke-opacity=".08"/>
  <circle cx="204" cy="270" r="29" fill="#111"/>
  <text x="180" y="281" fill="#fff" font-family="Inter, Arial, sans-serif" font-size="22" font-weight="900">WF</text>
  <text x="252" y="260" fill="#111" font-family="Inter, Arial, sans-serif" font-size="24" font-weight="900">Web Fuengirola</text>
  <text x="252" y="288" fill="#208866" font-family="Inter, Arial, sans-serif" font-size="15" font-weight="850">Visible en Google y Maps</text>
  <rect x="204" y="326" width="218" height="13" rx="7" fill="#111" opacity=".13"/>
  <rect x="204" y="354" width="176" height="13" rx="7" fill="#111" opacity=".09"/>
  <rect x="204" y="388" width="180" height="42" rx="21" fill="#111"/>
  <text x="234" y="415" fill="#fff" font-family="Inter, Arial, sans-serif" font-size="14" font-weight="900">Cómo llegar</text>

  <rect x="534" y="222" width="244" height="244" rx="34" fill="#edf6f1" stroke="#111" stroke-opacity=".08"/>
  <path d="M568 284c58-44 98-8 174-58" fill="none" stroke="#208866" stroke-width="10" stroke-linecap="round" opacity=".44"/>
  <path d="M572 396c54-66 110-42 168-102" fill="none" stroke="#111" stroke-width="6" stroke-linecap="round" opacity=".16"/>
  <path d="M588 342c42-34 88-30 142 14" fill="none" stroke="#e4b468" stroke-width="8" stroke-linecap="round" opacity=".48"/>
  <path d="M660 270c27 0 49 22 49 49 0 44-49 92-49 92s-49-48-49-92c0-27 22-49 49-49z" fill="#111"/>
  <circle cx="660" cy="320" r="15" fill="#fff"/>
  <circle cx="660" cy="320" r="7" fill="#208866"/>
  <rect x="608" y="480" width="104" height="30" rx="15" fill="#208866"/>
  <text x="631" y="500" fill="#fff" font-family="Inter, Arial, sans-serif" font-size="13" font-weight="900">MAPS</text>
</svg>
